<svg xmlns="http://www.w3.org/2000/svg" xmlns:xlink="http://www.w3.org/1999/xlink" fill="none" version="1.1" width="24" height="24" viewBox="0 0 24 24"><g><g><path d="M3,18.5L3,6C3,5.1715800000000005,3.292895,4.46447,3.87868,3.87868C4.46446,3.292895,5.1715800000000005,3,6,3L18.5,3C19.3284,3,20.0355,3.292895,20.6213,3.87868C21.2071,4.46446,21.5,5.1715800000000005,21.5,6L21.5,18.5C21.5,19.3284,21.2071,20.0355,20.6213,20.6213C20.0355,21.2071,19.3284,21.5,18.5,21.5L6,21.5C5.1715800000000005,21.5,4.46447,21.2071,3.87868,20.6213C3.292895,20.0355,3,19.3284,3,18.5ZM4.5,18.5C4.5,18.9142,4.64645,19.2677,4.93934,19.5606C5.2322299999999995,19.8535,5.58578,20,6,20L18.5,20C18.9142,20,19.2677,19.8535,19.5606,19.5606C19.8535,19.2677,20,18.9142,20,18.5L20,6C20,5.58578,19.8535,5.2322299999999995,19.5606,4.93934C19.2677,4.64645,18.9142,4.5,18.5,4.5L6,4.5C5.58578,4.5,5.2322299999999995,4.64645,4.93934,4.93934C4.64645,5.2322299999999995,4.5,5.58578,4.5,6L4.5,18.5ZM16.5,12.25C16.5,12.6642,16.1642,13,15.75,13L8.75,13C8.335799999999999,13,8,12.6642,8,12.25C8,11.8358,8.335799999999999,11.5,8.75,11.5L15.75,11.5C16.1642,11.5,16.5,11.8358,16.5,12.25Z" fill="#FFFFFF" fill-opacity="1"/></g></g></svg>