<svg xmlns="http://www.w3.org/2000/svg" xmlns:xlink="http://www.w3.org/1999/xlink" fill="none" version="1.1" width="16" height="16" viewBox="0 0 16 16"><g><g><path d="M2.3131137461395266,7.81311C2.1178512461395265,8.008379999999999,2.1178512461395265,8.32496,2.3131137461395266,8.52022L7.410746746139527,13.6179C7.7361767461395265,13.9433,8.263816746139526,13.9433,8.589256746139526,13.6179L13.686866746139527,8.52022C13.882166746139527,8.32496,13.882166746139527,8.008379999999999,13.686866746139527,7.81311L13.648866746139527,7.77879C13.452566746139526,7.61861,13.162866746139526,7.63005,12.979766746139527,7.81311L7.9999967461395265,12.793L3.020219746139526,7.81311C2.8249577461395265,7.61785,2.508375746139526,7.61785,2.3131137461395266,7.81311ZM2.3131137461395266,2.146446C2.1178512461395265,2.341708,2.1178512461395265,2.658291,2.3131137461395266,2.853554L7.410746746139527,7.95118C7.7361767461395265,8.276620000000001,8.263816746139526,8.276620000000001,8.589256746139526,7.95118L13.686866746139527,2.853554C13.882166746139527,2.658291,13.882166746139527,2.341708,13.686866746139527,2.146446L13.648866746139527,2.112123C13.452566746139526,1.9519475,13.162866746139526,1.9633878,12.979766746139527,2.146446L7.9999967461395265,7.12633L3.020219746139526,2.146446C2.8249577461395265,1.9511846,2.508375746139526,1.9511846,2.3131137461395266,2.146446Z" fill-rule="evenodd" fill="#FFFFFF" fill-opacity="1"/></g></g></svg>