<svg xmlns="http://www.w3.org/2000/svg" xmlns:xlink="http://www.w3.org/1999/xlink" fill="none" version="1.1" width="24" height="24" viewBox="0 0 24 24"><g><g><path d="M2.75,18.25L2.75,5.75C2.75,4.9215800000000005,3.042895,4.21447,3.62868,3.62868C4.21446,3.042895,4.9215800000000005,2.75,5.75,2.75L18.25,2.75C19.0784,2.75,19.7855,3.042895,20.3713,3.62868C20.9571,4.21446,21.25,4.9215800000000005,21.25,5.75L21.25,18.25C21.25,19.0784,20.9571,19.7855,20.3713,20.3713C19.7855,20.9571,19.0784,21.25,18.25,21.25L5.75,21.25C4.92157,21.25,4.21447,20.9571,3.62868,20.3713C3.042895,19.7855,2.75,19.0784,2.75,18.25ZM4.25,18.25C4.25,18.6642,4.39645,19.0177,4.68934,19.3106C4.9822299999999995,19.6035,5.33578,19.75,5.75,19.75L18.25,19.75C18.6642,19.75,19.0177,19.6035,19.3106,19.3106C19.6035,19.0177,19.75,18.6642,19.75,18.25L19.75,5.75C19.75,5.33578,19.6035,4.9822299999999995,19.3106,4.68934C19.0177,4.39645,18.6642,4.25,18.25,4.25L5.75,4.25C5.33578,4.25,4.9822299999999995,4.39645,4.68934,4.68934C4.39645,4.9822299999999995,4.25,5.33578,4.25,5.75L4.25,18.25ZM8.5,8.125L8.5,15.875C8.5,16.2892,8.164200000000001,16.625,7.75,16.625C7.33578,16.625,7,16.2892,7,15.875L7,8.125C7,7.71078,7.33578,7.375,7.75,7.375C8.164200000000001,7.375,8.5,7.71078,8.5,8.125ZM17,8.125L17,15.875C17,16.2892,16.6642,16.625,16.25,16.625C15.8358,16.625,15.5,16.2892,15.5,15.875L15.5,8.125C15.5,7.71078,15.8358,7.375,16.25,7.375C16.6642,7.375,17,7.71078,17,8.125ZM12,8.75C12.5523,8.75,13,9.197700000000001,13,9.75C13,10.302299999999999,12.5523,10.75,12,10.75C11.4477,10.75,11,10.302299999999999,11,9.75C11,9.197700000000001,11.4477,8.75,12,8.75ZM12,13.25C12.5523,13.25,13,13.6977,13,14.25C13,14.8023,12.5523,15.25,12,15.25C11.4477,15.25,11,14.8023,11,14.25C11,13.6977,11.4477,13.25,12,13.25Z" fill="#FFFFFF" fill-opacity="1"/></g></g></svg>