<svg xmlns="http://www.w3.org/2000/svg" xmlns:xlink="http://www.w3.org/1999/xlink" fill="none" version="1.1" width="20" height="20" viewBox="0 0 20 20"><defs><clipPath id="master_svg0_17_6543"><rect x="0" y="0" width="20" height="20" rx="0"/></clipPath></defs><g clip-path="url(#master_svg0_17_6543)"><g><path d="M11.461824906463622,2.199871L18.039654906463625,15.6765C18.346254906463624,16.3046,18.234454906463622,17.0582,17.758854906463622,17.5702C17.283254906463625,18.0823,16.53995490646362,18.2493,15.890954906463623,17.9898L11.366244906463622,16.180999999999997C10.995664906463624,16.032899999999998,10.742284906463624,15.686,10.713914906463623,15.2879L9.959374906463623,4.70837L9.203494906463623,15.2741C9.175034906463623,15.6722,8.921704906463624,16.018900000000002,8.551164906463622,16.167L3.991434906463623,17.9898C3.342414906463623,18.2493,2.599134906463623,18.0823,2.1235519064636232,17.5702C1.647972606463623,17.0582,1.536143906463623,16.3046,1.842734906463623,15.6765L8.420584906463624,2.199872C8.703494906463623,1.620256,9.296334906463624,1.25000149012,9.941204906463623,1.25000149012C10.586084906463624,1.25000149012,11.178914906463623,1.620256,11.461824906463622,2.199871Z" fill="#FFFFFF" fill-opacity="1"/></g></g></svg>